<svg clip-rule="evenodd" fill-rule="evenodd" stroke-linejoin="round" stroke-miterlimit="2" viewBox="0 0 233 413" xmlns="http://www.w3.org/2000/svg" class="w-20 mx-4" data-v-6a768c22=""><clipPath id="a" data-v-6a768c22=""><path clip-rule="nonzero" d="M78 406s-2 0-5-1c-2-1-5-2-6-3l-2-2 4-8-2-3c-6-6-6-10-1-18 3-5 4-7 2-16 0-5 0-6 2-8 1-1 3-2 5-2h3v-2c0-1 0-2-1-2-2-2-1-6 2-9 3-4 7-4 16 1 14 7 31 20 31 23 0 1-1 3-2 4l-3 3-4-2c-3-2-5-4-6-4 0-1-3-2-6-4l-6-3h1v-1h-4l-4 1-1 2v3h2l1-1v1h-1l16 12-2 1c-1 1-3 3-4 5l-1 3-2-2c-1-1-3-2-4-1h-1v-1h1l-2-2-2-1-1 1h-1l1-1v-1h-1l-2 1v-1l1-1-3-1h-6l-2 1v2c0 2 1 3 8 7l12 6-3 1c-2 1-3 2-4 4v3H79v3l1 3h4l5 1h-2c0 1-1 3-1 5v4zm43-50l2 1v-1c0-2-3-5-5-5-1 0-3 3-3 5v1l2-1c2-1 2-1 4 0zm-28 51c0-1 1-1 2-2l2-1-2 1c-1 1-1 2-2 2zm-38-27c-4-6-2-15 3-19l2-2h1c0 1 0 2 1 4 0 3 0 5-3 8-3 5-4 10-2 11l2 1h-2s-2-1-2-3zm80-75c-1 0-5-2-9-3-11-4-14-6-18-11-3-4-3-4-1-8 1-4 1-5 0-8s-1-4 0-8c3-7 3-9-3-16-5-6-6-6-4-9 1-2 3-2 9 0 10 4 30 10 35 11 9 1 12-2 15-16 1-4 2-8 3-8l1-1-1 5c-1 4-1 6 0 12 2 7 2 7-1 11-5 8-8 15-11 26-2 12-3 17-1 19h1l-4 3c-5 2-8 3-11 1zm-10-10c2-3-6-11-10-10l-1 1 2 3c1 1 2 3 2 4 0 2 5 4 7 2zm9-13c1 0 0-3-1-6-1-4-2-6-6-8-2-2-5-3-6-3h-3v3c-1 6 1 10 10 13 2 1 5 2 5 2h1zm0-39c-2-1-9-3-16-6-13-5-20-6-22-3l-1 1-4-3c-4-3-21-16-24-19l-2-2h1l1 1v-2h-1c-1 0-2-1-3-2l-1-2h1v-1l-1-1s-2-5-3-10c-2-6-3-10-4-11 0-1-2-1-4-1-4 0-5 0-6-3-1-2-3-4-4-5l-2-1 1-1c1 0 4 0 6 1s4 2 4 1h1v-3c-1-1-1-4-2-5 0-2 0-4-1-6 0-3-5-8-8-9h-3v-1s2-2 4-3l3-2-4-5c-10-12-13-14-16-13-3 0-6 4-6 6 1 1 0 2 0 3l-1 1-1-6c-1-4-1-7 0-7l1-2h-1v-1l3 1c5 0 11 3 18 7 5 3 7 5 8 11 0 5 3 8 5 8h2v-10c0-8 0-11 2-13l1-3h3c2 1 3 0 9-6 8-9 6-8 30-11 7 0 11-3 11-7v-2h-3c-6 2-14 3-24 4-6 0-12 2-14 2-4 2-4 2-6 8 0 3-1 6-2 6l-1 1-3-3 1-2c1-1 1-2 0-5s-2-8-3-21c0-18 0-18 7-23 4-3 8-6 10-8 2-3 2-3 26-3 21 0 23 0 28-2 3-1 8-2 12-3 7 0 7 0 14 8 9 9 9 10 7 16-2 4-2 4 3 13l4 10h2l1-1v1l-1 2-5-1c-2 0-9-1-14-2-6-1-10-2-10-2-1 0-1 3-2 6v5l8-1c7 0 8 0 16 4 10 5 11 6 8 9l-1 2 2 4-1 1-.36 1-3.14-3c-3-2-6.5-2-8.5-2l-3 1v1s1 1 2 1l1 2v1l-1 2h-7l-1 1c0 1 1 2 1 3l2 2-4 2v-1c0-1-2-4-3-4h-1v4l-1-3c-1-1 0-4 1-7 1-5 1-5 0-7l-2-1-1 2c-7 8-7 9-7 24s2 24 8 34c2 3 4 7 4 8v1l1 1h2l-3-3 1 1 2 1 2-1 1-1 2 2 2 1-4-2-2 2c-2 0-3 2-4 3v2h-2v4l3-4 3-3-1 2c-2 2-7 8-9 9-1 1-4 0-7-2-3-1-7-2-9-2l-2 1v2l3 1c1 0 4 1 5 1l3 1-1 2v3l4 2c5 2 5 2 8 0 1-1 3-4 4-7s3-6 4-7c0 0 1-1 1-2v-1l1 1c3 2 5 0 6-4 0-6-1-8-7-11l-3-1v-2l1-1-2-1-1-1 1-2c1-2 1-5 1-9s0-9 1-11l1-5 2-1 3-1v-2l16-4v1c3 4 3 8 1 14-2 7-5 20-6 32 0 4 0 9-1 10v2l-3-1h-3v2c0 1 1 2 1 3 1 1 2 2 3 4s1 4-1 8l-1 5h-1c-1 0-1 0-2-1v-1l-3 2c-2 1-4 2-5 2s-5 1-8 3c-4 1-10 3-17 4-11 1-12 2-12 5 1 2 8 4 17 4h7l-1 2c-1 1-1 3 1 6l2 4h-1s-2-1-3-1zm-41-21c0-1-2-3-5-5-2-2-4-5-4-5 0-1 1-3 3-6l3-3-1-1c-2 0-7 5-8 8 0 1 0 3 1 4 3 4 8 9 10 9h2zm36-4c13-3 28-9 28-11v-1h-1c-1 0-3 1-6 2-14 7-29 9-45 6h-3v3h6c3 1 6 1 7 1 3 1 7 1 14 0zm10-23l2-3h-2l-3-1v1s0 2-1 3l-1 .5 1.5 1.25L139 195zm-26-4l-1-5 2-1h3v-3h-3c-2 0-4 1-6 2l-2 3 2 3c2 4 3 6 4 6h1zm-32-46c3.636.682 13.098-.016 13.183-.563C104.081 141.621 105 142 106 139l-3-3c2.214 1.708-9.858 5.915-8.96 3.185l7.775-4.685c.094-.168.821-1.61.905-1.775 1.886-3.703.637-5.271-1.157-7.725-2-2-3.153-3-9.153-3-9 1-1.41 8.132-1.41 8.132-.429 2.086-11.193 4.925-11 2.868.017-.184.82 4.188 0 5-1.099 1.088-4-1-4-1h-4v2c0 2 1 3 4 4zm-58 8c-2-6-4-11-4-11v-1l2 1 2 2 2-3 2-2v3c1 2 1 4-1 6l-1 3 2 3c1 1 3 3 4 3l2 2v1h-2l-2-1-1 3-2 2z" data-v-6a768c22=""></path></clipPath><g fill-rule="nonzero" data-v-6a768c22=""><path d="M107 411.834c-3-1-12-1-19-1-12-1-15-1-19-3-6-2-8-5-8-8l1-3-4 1c-5 0-7-1-16-10-9-8-18-19-22-26-1-3-4-7-5-9-5-6-11-19-11-23 0-1 1-6 2-10 2-3 4-9 5-12 0-3 2-6 2-6 1-1 1-2 1-3s6-16 11-25c7-15 16-32 18-33l1-2h-1v-1l4-3c4-4 4-4 14-4 12-1 10-2 25 10 3 3 6 5 6 5h1v-2c0-1-9-9-15-13-2-1-7-6-12-11-9-8-9-8-11-20l-2-12h-3c-3 0-6-2-8-6-2-3-4-4-7-5-2 0-5-2-6-3-7-5-19-39-19-51 0-4 2-7 5-7 1 0 2-1 3-1l2-2-4-9c-15-28-15-30-16-36 0-3 0-5 1-6 1 0 1-5 2-12 0-12 0-12 5-17 3-2 8-6 11-8l5-4-1-2v-2l5-2c2-1 6-3 7-4 2 0 4-1 4-1 1 0 5-2 10-5 10-5 11-5 27-1 7 1 7 1 11-1 7-5 20-3 27 3 2 1 3 1 7 0 12-3 13-3 19 2 3 2 8 5 11 6 5 3 9 7 9 10 0 1 3 4 6 7 6 7 6 7 6 17s0 11 4 19c3 8 3 8 1 18 0 3 1 5 2 9 4 9 5 19 4 36 0 12-1 14-3 16-3 3-4 6-6 13-2 9-6 38-5 42 0 2 0 5-1 8-1 2-2 4-2 5l4-2c4-2 7-3 9 0 2 1 1 10-1 13-3 5-4 10-3 16 1 5 2 6 5 9 3 2 8 7 13 11 19 18 27 25 29 25s7 5 9 10 2 19 1 25c-3 8-11 14-19 14-5 0-15-3-27-7-3-2-7-3-7-3v2c0 1 1 5 1 7 2 7 6 22 7 28 0 2 1 6 2 9 4 15 4 14 0 18-2 1-4 3-5 3 0 0-2 1-4 3-2 1-6 4-9 6-3 1-7 3-9 5-2 1-8 3-14 4-9 3-13 3-24 3-7 0-15-1-17-1zm-39-74c3-1 3-1 3-10-1-13-3-27-4-28l-1-1-2 2c-3 4-11 20-11 23 0 1 1 4 3 5 1 2 4 6 5 9l3 7 1-3c0-1 1-3 3-4z" fill="#030203" data-v-6a768c22=""></path><path d="M100 393s-2 0-3-1l-3-1v-1s0-1 1-2l1-1 2 1 2 2h1v-1c0-1.969-4.845-4.907-6.904-4.998L94 384c0 1-1 2-2 4v3H80v2l1 2h5c1.923 0 5.695.924 6.871 1.885.305.119.586.237.84.352L96 398v3c0 .722-.13 1.444-.297 2.118-.094 1.101-.328 2.132-.703 2.882-.469.469-3.574.718-6.947.747l-.678.003c-3.625 0-7.375-.25-8.375-.75-1 0-3 0-6-1-2-1-5-2-6-3l-2-2 4-8-2-3c-6-6-6-10-1-18 3-5 4-7 2-16 0-5 0-6 2-8 1-1 3-2 5-2h3v-2c0-1 0-2-1-2-2-2-1-6 2-9 1.383-1.844 2.978-2.837 5.178-2.884l.112-.001h.113c2.546.021 5.886 1.268 10.597 3.885 14 7 31 20 31 23 0 1-1 3-2 4l-3 3-4-2c-3-2-5-4-6-4-1-2-12-7-15-7h-3l-1 2v1l1 1c1 0 4 3 8 5 9.643 7.715 13.914 11.71 15.202 14.908.576 1.114.703 2.164.332 3.344A9.573 9.573 0 01116 379l-1 3h-2a1.87 1.87 0 01-.205-.012c-1.008.269-2.272.027-3.795-.988-18.704-11.813-21.903-12.966-25.813-12.999L83 368h-4v1c0 1 3 3 8 6 9 4 16 9 16 11 1 0 0 2 0 4l-1 3zm-6 5h-3l-3 1-1 3v3h2v-2l1-2h3v-1zm-33-39c1 0 1 2 2 4 0 3 0 5-3 8-4 5-4 7-1 12l2 3h-1l-1 1-1-1c-3-3-6-8-6-13 0-6 2-9 5-13l3-2zm53 17c0-2-5-7-6-7s-4 4-4 5v1h3v-1l1-1h1l2 1v4h3zm3-20c2-1 2-1 4 0l2 1v-1c0-2-3-5-5-5-1 0-3 3-3 5v1zm18-50c-2 0-7-2-11-4-9-3-14-5-17-11-3-4-3-4-2-8 2-4 2-5 1-8s-1-5 0-9c1-2 2-5 2-6s-2-4-5-8c-5-5-6-8-4-11 1-3 4-3 11 0 8 3 29 10 34 11 8 1 12-3 14-15 2-9 4-13 10-18 6-6 6-6 8-3 1 1 1 2-2 8-4 8-4 12-3 23 1 5 1 5-4 17-5 10-10 24-10 29 0 3-4 10-6 10 0 0-3 1-5 2-6 3-7 3-11 1zm33-22c-1 4-2 9-2 10-2 4-8 11-9 11h-1v-1c0-1 0-2 1-3 .937 0 2.754-5.273 4.625-10.876l.75-2.248C164.246 282.273 166.063 277 167 277h1zm-7-71c-1 4-4 12-5 17s-3 10-3 11c-1 2-9 4-14 4-2 0-5-1-6-1-2-1-9-3-16-6-8.532-3.047-12.978-4.609-15.829-4.685l-.216-.002c-1.705-.001-2.83.562-3.955 1.687l-2 1-2-1c-6-4-29-23-30-25-1-1-3-7-4-13-2-6-3-11-4-12v-2h-4l-.881-.001c-4.127-.015-4.244-.249-6.119-3.999-1-3-2-4-6-5-6-2-10-4-12-8s-9-25-10-34c-2-7-2-10 2-11 .219-.109.545-.159.961-.155l.09.001c3.459.092 12.652 3.623 17.949 7.154 6 3 8 6 9 12 0 2.525.797 4.652 1.636 5.876.69.774 1.527 1.124 2.364 1.124h1l-1-4c0-1 0-7 1-13 1-10 1-10-3-17-4-6-5-8-5-14-1-7-3-25-5-36 0-3 0-4 6-11 4-5 7-7 12-9 15-7 25-8 52-3 6 1 7 1 13-2 5-2 8-2 14-2 12 0 23 6 27 14 5 12 12 49 10 52v1l-3-3c-2-3-4-3-8-4-2 0-9-2-14-3-6-1-10-2-10-2-1 0-1 3-2 6v5l7-1 .994.001L143 101c6.781 0 7.932 0 15.27 3.637l.73.363c9 4 11 6 9 9-1 1-1 2-1 2v1h3v5c0 4-1 5-2 7-4 3-10 4-15 4l-5-1v2l3 1c1.368.456 2.528.704 4.049.744 1.589-.038 3.746-.286 6.951-.744l8-2 1 1c3 4 3 9 1 15-3 9-4 15-5 31-.969 7.75-1.938 13.624-1.997 14.892L165 195h-1l-4-2h-1v1l2 4c2.547 2.547 3.472 4.283 2.775 7.533-.141 1.56-.702 3.322-1.775 5.467zm-19 12c4-3 7-6 7-7v-1h-1s-1.898.633-4.687 1.898c-3.382 1.846-8.75 3.521-14.827 4.512-1.127.22-2.292.419-3.486.59-4.961 0-10.906.984-10.999 1.977L114 226l-1 1 .886.886c.393.265.893.524 1.479.773 2.927 1.021 9.654 2.317 14.503 2.34 1.328-.002 2.38-.015 3.273-.093 2.671-.281 4.359-1.406 8.859-5.906zm-49-3c0-1-2-3-5-5-2-2-4-5-4-5 0-1 1-3 3-6l3-3-1-1c-2 0-7 5-8 8 0 1 0 3 1 4 3 4 8 9 10 9h2zm64-16h-1c-1 0-3 1-6 2-9.734 4.867-19.952 7.317-30.654 7.35h-.36c-4.453-.009-8.99-.436-13.611-1.281L105 214h-3v3h6c3 1 6 1 7 1 1.5.5 3.25.75 5.5.75l.428-.003c2.168-.029 4.79-.278 8.072-.747 13-3 28-9 28-11zm-19.157 1.499c.955-.031 1.704-.53 3.157-1.499 2-1 4-5 4-8 1-3 3-5 3-6 1 0 1-1 1-3v-3h-1s-2 2-4 5c-4.156 4.156-6.197 5.844-8.426 5.903l-.088.001c-1.499.01-3.096-.709-5.486-1.904-3-1-7-2-9-2l-2 1v2l3 1c.437 0 1.258.191 2.126.407l.748.186c.868.216 1.688.407 2.126.407l3 1-1 2v3l4 2c2.5 1 3.75 1.5 4.75 1.5zM113 191l-1-5 2-1h3v-3h-3c-2 0-4 1-6 2l-2 3 2 3c2 4 3 6 4 6h1zm33.708-15.875c-2.149-2.512-5.261-10.153-7.708-19.125-2-8-2-11-2-19 1-5 2-12 3-15s1-5 1-6h-1l-1 1c-1 1-3 3-5 6-2 4-2 6-3 15.998v.389c0 10.684.024 13.684 2 19.613 1.938 7.75 6.691 16.439 9.714 20.612.132.171.264.337.395.497L146 183l1-1 2-1 2 1c0 1 1 3 1 5v3h3v-4c1-4 1-5-2-7-2-2-4-3-5-3h-1zM26.047 138.001c.984.061 1.953 2.015 1.953 2.999 1 3 1 4 0 7-2 3-2 3-1 6 1 1 3 3 5 3l2 1v1l-1 2-2-1h-2l-1 2c-1 4 5 8 11 9 3 0 6 1 8 2 1 0 2 1 2 1h1v-2c-1-1-2-5-3-9-1-7-3-9-7-11-2 0-4-1-4-2v-1l3-2 4-2-3-4c-2-2-5-5-6-7-4-5-7-7-10-6-4 0-5 3-4 9l1 5h3l1-2v-2h1zM103 137l-2 1c-.937.937-1.875.996-2.812 1H98l-1-1v1l-1 1-7 1c-4 0-8 0-10-1-2.625-.875-4.484-1.75-4.908-1.955L74 138h-1v1c0 2 8 5 13 5l.284-.003c2.965-.059 6.81-1.028 9.716-1.997 4 0 7-2 8-2l1-1zm-14.172 1.747c1.641-.029 3.297-.278 5.172-.747 9-2 12-10 6-14-3-3-11-3-15 1l3 2 3 3-2 1c-.969.969-2.876 1.937-4.813 1.997L84 133h-4v4l3 1c2 .5 3.75.75 5.5.75zM175 130c-2-5-2-7-1-13 1-5 2-8 2-9h1l1 1c0 1 1 5 2 9 1 5 1 8 0 12l-1 6h-2zm-14.092-12.101A19.967 19.967 0 00155 117l-3 1v1s1 1 2 1l1 2v1l-1 2h-7l-1 1c0 .5.25 1 .5 1.5l1.5 1.5c1 0 4 1 8 1 5 0 6 0 9-2 2-2 2-3 2-5a4.887 4.887 0 00-.437-1.126L166 123v-1.977c-.55-.689-1.274-1.29-2.114-1.802L163 119a11.328 11.328 0 00-2.092-1.101zm-86.122-9.148c3.053-1.611 8.203-2 22.214-3.751 7 0 11-3 11-7v-2h-3c-6 2-14 3-24 4-6 0-12 2-14 2-4 2-4 2-6 8l-.001.142c-.023 2.17-.56 4.315-1.234 5.299-.411 1.186-.765 2.138-.765 2.559-1 2-1 3-1 4l.907.907c1.54-.354 3.052-1.866 8.093-6.907 3.506-3.944 5.091-5.967 7.786-7.249z" fill="#cfae9b" data-v-6a768c22=""></path><path d="M79 406c-1 0-3 0-6-1-2-1-5-2-6-3l-2-2 4-8-2-3c-6-6-6-10-1-18 3-5 4-7 2-16 0-5 0-6 2-8 1-1 3-2 5-2h3v-2c0-1 0-2-1-2-2-2-1-6 2-9 3-4 7-4 16 1 14 7 31 20 31 23 0 1-1 3-2 4l-3 3-4-2c-3-2-5-4-6-4-1-2-12-7-15-7h-3l-1 2v1l1 1c1 0 4 3 8 5 15 12 17 15 15 20l-1 3h-2c-1 0-3-1-4-1-19-12-22-13-26-13h-4v1c0 1 3 3 8 6 9 4 16 9 16 11 1 0 0 2 0 4l-1 3h-2s-2 0-3-1l-3-1v-1s0-1 1-2l1-1 2 1 2 2h1v-1c0-2-5-5-7-5 0 1-1 2-2 4v3H80v2l1 2h5c2 0 6 1 7 2l3 1v3c0 2-1 4-1 5-1 1-14 1-16 0zm10-3l1-2h3v-1l1-2h-3l-3 1-1 3v3h2zm25-27c0-2-5-7-6-7s-4 4-4 5v1h3v-1l1-1h1l2 1v4h3zm7-20l2 1v-1c0-2-3-5-5-5-1 0-3 3-3 5v1l2-1c2-1 2-1 4 0zm-63 30c-3-3-6-8-6-13 0-6 2-9 5-13l3-2 1 1c1 0 1 2 2 4 0 3 0 5-3 8-4 5-4 7-1 12l2 3h-1l-1 1zm77-80c-2 0-7-2-11-4-9-3-14-5-17-11-3-4-3-4-2-8 2-4 2-5 1-8s-1-5 0-9c1-2 2-5 2-6s-2-4-5-8c-5-5-6-8-4-11 1-3 4-3 11 0 8 3 29 10 34 11 8 1 12-3 14-15 2-9 4-13 10-18 6-6 6-6 8-3 1 1 1 2-2 8-4 8-4 12-3 23 1 5 1 5-4 17-5 10-10 24-10 29 0 2-4 10-5 10l2-4c1-2 2-5 2-6 0-5 5-19 10-29 5-12 5-12 4-17-1-11-1-15 3-23l3-7-2-2-4 3c-2 2-3 4-3 5 0 2-1 4-2 5-3 3-4 10-2 18 2 6 2 6-1 10-1 3-4 7-5 10-3 6-8 25-8 31v3l2-1 1-1-1 2c-1 2-2 3-6 5-4 3-6 3-10 1zm-10-11c2-3-6-11-10-10l-1 1 2 3c1 1 2 3 2 4 0 2 5 4 7 2zm9-13c1 0 0-3-1-6-1-4-2-6-6-8-2-2-5-3-6-3h-3v3c-1 6 1 10 10 13 2 1 5 2 5 2h1zm-1-38c-2-1-9-3-16-6-14-5-17-6-20-3l-2 1-2-1c-6-4-29-23-30-25-1-1-3-7-4-13-2-6-3-11-4-12v-2h-4c-5 0-5 0-7-4-1-3-2-4-6-5-6-2-10-4-12-8s-9-25-10-34c-2-7-2-10 2-11 2-1 13 3 19 7 6 3 8 6 9 12 0 4 2 7 3 7h2v-10c0-9 0-10 2-12s3-3 5-2c2 0 3-1 9-7 8-9 6-8 30-11 7 0 11-3 11-7v-2h-3c-6 2-14 3-24 4-6 0-12 2-14 2-4 2-4 2-6 8 0 3-1 6-2 6l-1 1-3-3 1-2c1-1 1-2 0-5s-2-8-3-21c0-18 0-18 7-23 4-3 8-6 10-8 2-3 2-3 26-3 21 0 23 0 28-2 3-1 8-2 12-3 7 0 7 0 14 8 9 9 9 10 7 16-2 4-2 4 3 13l4 10h2l1-1v1l-1 2-5-1c-2 0-9-1-14-2-6-1-10-2-10-2-1 0-1 3-2 6v5l8-1c7 0 8 0 16 4 10 5 11 6 8 9l-1 2 2 4-1 1-1 2v-2l1-1-4-1c-3-2-6-2-8-2l-3 1v1s1 1 2 1l1 2v1l-1 2h-7l-1 1c0 1 1 2 1 3l2 2-4 2v-1c0-1-2-4-3-4h-1v4l-2-4v4c-2 7-1 16 2 25 1 5 3 10 3 10l1 2v-3c-1-1-1-3-2-4v-2l3 3v-10c1-11 2-13 5-13h2v-2h-3v-1h1l-3-3 3 1c3 1 5 1 12 0l7-2 1 1c3 4 3 9 1 15-3 9-4 15-5 31-1 8-2 14-2 15h-1l-4-2h-1v1l2 4c3 4 4 7 1 13l-2 4h-1l-4 4v-2l1-1-1-1h-1l-2 1-1 2-4-2-1 1c-3 3-12 6-22 7-5 0-10 1-10 2l-1 1 1 1c1 1 10 3 16 3 5 0 6 0 12-6 4-3 7-6 8-6l-5 4c-7 7-8 8-8 9v2h-1l-1 1 1 2v3h3v4zm-40-22c0-1-2-3-5-5-2-2-4-5-4-5 0-1 1-3 3-6l3-3-1-1c-2 0-7 5-8 8 0 1 0 3 1 4 3 4 8 9 10 9h2zm36-4c13-3 28-9 28-11v-1h-1c-1 0-3 1-6 2-14 7-29 9-45 6h-3v3h6c3 1 6 1 7 1 3 1 7 1 14 0zm12-12c2-1 4-5 4-8 1-3 3-5 3-6 1 0 1-1 1-3v-3h-1s-2 2-4 5c-7 7-8 7-14 4-3-1-7-2-9-2l-2 1v2l3 1c1 0 4 1 5 1l3 1-1 2v3l4 2c5 2 5 2 8 0zm-28-15l-1-5 2-1h3v-3h-3c-2 0-4 1-6 2l-2 3 2 3c2 4 3 6 4 6h1zm42-5c1-4 1-5-2-7-2-2-4-3-5-3-2 0-6-9-9-20-2-8-2-11-2-19 1-5 2-12 3-15s1-5 1-6h-1l-1 1c-1 1-3 3-5 6-2 4-2 6-3 16 0 11 0 14 2 20 2 8 7 17 10 21l3 3 1-1 2-1 2 1c0 1 1 3 1 5v3h3zM50 172c-1-1-2-5-3-9-1-7-3-9-7-11-2 0-4-1-4-2v-1l3-2 4-2-3-4c-2-2-5-5-6-7-4-5-7-7-10-6-4 0-5 3-4 9l1 5h3l1-2v-2h1c1 0 2 2 2 3 1 3 1 4 0 7-2 3-2 3-1 6 1 1 3 3 5 3l2 1v1l-1 2-2-1h-2l-1 2c-1 4 5 8 11 9 3 0 6 1 8 2 1 0 2 1 2 1h1zm46-30c4 0 7-2 8-2l1-1-2-2-2 1c-1 1-2 1-3 1l-1-1v1l-1 1-7 1c-4 0-8 0-10-1-3-1-5-2-5-2h-1v1c0 2 8 5 13 5 3 0 7-1 10-2zm-2-4c9-2 12-10 6-14-3-3-11-3-15 1l3 2 3 3-2 1c-1 1-3 2-5 2h-4v4l3 1c4 1 7 1 11 0z" fill="#e0bca2" data-v-6a768c22=""></path><path d="M78 406s-2 0-5-1c-2-1-5-2-6-3l-2-2 4-8-2-3c-6-6-6-10-1-18 3-5 4-7 2-16 0-5 0-6 2-8 1-1 3-2 5-2h3v-2c0-1 0-2-1-2-2-2-1-6 2-9 3-4 7-4 16 1 14 7 31 20 31 23 0 1-1 3-2 4l-3 3-4-2c-3-2-5-4-6-4 0-1-3-2-6-4l-6-3h1v-1h-4l-4 1-1 2v3h2l1-1v1h-1l16 12-2 1c-1 1-3 3-4 5l-1 3-2-2c-1-1-3-2-4-1h-1v-1h1l-2-2-2-1-1 1h-1l1-1v-1h-1l-2 1v-1l1-1-3-1h-6l-2 1v2c0 2 1 3 8 7l12 6-3 1c-2 1-3 2-4 4v3H79v3l1 3h4l5 1h-2c0 1-1 3-1 5v4zm43-50l2 1v-1c0-2-3-5-5-5-1 0-3 3-3 5v1l2-1c2-1 2-1 4 0zm-28 51c0-1 1-1 2-2l2-1-2 1c-1 1-1 2-2 2zm-38-27c-4-6-2-15 3-19l2-2h1c0 1 0 2 1 4 0 3 0 5-3 8-3 5-4 10-2 11l2 1h-2s-2-1-2-3zm80-75c-1 0-5-2-9-3-11-4-14-6-18-11-3-4-3-4-1-8 1-4 1-5 0-8s-1-4 0-8c3-7 3-9-3-16-5-6-6-6-4-9 1-2 3-2 9 0 10 4 30 10 35 11 9 1 12-2 15-16 1-4 2-8 3-8l1-1-1 5c-1 4-1 6 0 12 2 7 2 7-1 11-5 8-8 15-11 26-2 12-3 17-1 19h1l-4 3c-5 2-8 3-11 1zm-10-10c2-3-6-11-10-10l-1 1 2 3c1 1 2 3 2 4 0 2 5 4 7 2zm9-13c1 0 0-3-1-6-1-4-2-6-6-8-2-2-5-3-6-3h-3v3c-1 6 1 10 10 13 2 1 5 2 5 2h1zm0-39c-2-1-9-3-16-6-13-5-20-6-22-3l-1 1-4-3c-4-3-21-16-24-19l-2-2h1l1 1v-2h-1c-1 0-2-1-3-2l-1-2h1v-1l-1-1s-2-5-3-10c-2-6-3-10-4-11 0-1-2-1-4-1-4 0-5 0-6-3-1-2-3-4-4-5l-2-1 1-1c1 0 4 0 6 1s4 2 4 1h1v-3c-1-1-1-4-2-5 0-2 0-4-1-6 0-3-5-8-8-9h-3v-1s2-2 4-3l3-2-4-5c-10-12-13-14-16-13-3 0-6 4-6 6 1 1 0 2 0 3l-1 1-1-6c-1-4-1-7 0-7l1-2h-1v-1l3 1c5 0 11 3 18 7 5 3 7 5 8 11 0 5 3 8 5 8h2v-10c0-8 0-11 2-13l1-3h3c2 1 3 0 9-6 8-9 6-8 30-11 7 0 11-3 11-7v-2h-3c-6 2-14 3-24 4-6 0-12 2-14 2-4 2-4 2-6 8 0 3-1 6-2 6l-1 1-3-3 1-2c1-1 1-2 0-5s-2-8-3-21c0-18 0-18 7-23 4-3 8-6 10-8 2-3 2-3 26-3 21 0 23 0 28-2 3-1 8-2 12-3 7 0 7 0 14 8 9 9 9 10 7 16-2 4-2 4 3 13l4 10h2l1-1v1l-1 2-5-1c-2 0-9-1-14-2-6-1-10-2-10-2-1 0-1 3-2 6v5l8-1c7 0 8 0 16 4 10 5 11 6 8 9l-1 2 2 4-1 1-.36 1-3.14-3c-3-2-6.5-2-8.5-2l-3 1v1s1 1 2 1l1 2v1l-1 2h-7l-1 1c0 1 1 2 1 3l2 2-4 2v-1c0-1-2-4-3-4h-1v4l-1-3c-1-1 0-4 1-7 1-5 1-5 0-7l-2-1-1 2c-7 8-7 9-7 24s2 24 8 34c2 3 4 7 4 8v1l1 1h2l-3-3 1 1 2 1 2-1 1-1 2 2 2 1-4-2-2 2c-2 0-3 2-4 3v2h-2v4l3-4 3-3-1 2c-2 2-7 8-9 9-1 1-4 0-7-2-3-1-7-2-9-2l-2 1v2l3 1c1 0 4 1 5 1l3 1-1 2v3l4 2c5 2 5 2 8 0 1-1 3-4 4-7s3-6 4-7c0 0 1-1 1-2v-1l1 1c3 2 5 0 6-4 0-6-1-8-7-11l-3-1v-2l1-1-2-1-1-1 1-2c1-2 1-5 1-9s0-9 1-11l1-5 2-1 3-1v-2l16-4v1c3 4 3 8 1 14-2 7-5 20-6 32 0 4 0 9-1 10v2l-3-1h-3v2c0 1 1 2 1 3 1 1 2 2 3 4s1 4-1 8l-1 5h-1c-1 0-1 0-2-1v-1l-3 2c-2 1-4 2-5 2s-5 1-8 3c-4 1-10 3-17 4-11 1-12 2-12 5 1 2 8 4 17 4h7l-1 2c-1 1-1 3 1 6l2 4h-1s-2-1-3-1zm-41-21c0-1-2-3-5-5-2-2-4-5-4-5 0-1 1-3 3-6l3-3-1-1c-2 0-7 5-8 8 0 1 0 3 1 4 3 4 8 9 10 9h2zm36-4c13-3 28-9 28-11v-1h-1c-1 0-3 1-6 2-14 7-29 9-45 6h-3v3h6c3 1 6 1 7 1 3 1 7 1 14 0zm10-23l2-3h-2l-3-1v1s0 2-1 3l-1 .5 1.5 1.25L139 195zm-26-4l-1-5 2-1h3v-3h-3c-2 0-4 1-6 2l-2 3 2 3c2 4 3 6 4 6h1zm-32-46c3.636.682 13.098-.016 13.183-.563C104.081 141.621 105 142 106 139l-3-3c2.214 1.708-9.858 5.915-8.96 3.185l7.775-4.685c.094-.168.821-1.61.905-1.775 1.886-3.703.637-5.271-1.157-7.725-2-2-3.153-3-9.153-3-9 1-1.41 8.132-1.41 8.132-.429 2.086-11.193 4.925-11 2.868.017-.184.82 4.188 0 5-1.099 1.088-4-1-4-1h-4v2c0 2 1 3 4 4zm-58 8c-2-6-4-11-4-11v-1l2 1 2 2 2-3 2-2v3c1 2 1 4-1 6l-1 3 2 3c1 1 3 3 4 3l2 2v1h-2l-2-1-1 3-2 2z" fill="#f0c7a9" data-v-6a768c22=""></path></g><g clip-path="url(#a)" data-v-6a768c22=""><path d="M88.775 122c7.117-1.148 13.482 1.564 14.206 6.053.724 4.488-4.467 9.063-11.584 10.211s-13.482-1.564-14.206-6.053c-.724-4.488 4.467-9.063 11.584-10.211zm67.574-5.035c5.892.346 10.5 3.62 10.283 7.307-.216 3.686-5.176 6.398-11.069 6.052-5.892-.347-10.5-3.621-10.283-7.307.216-3.687 5.176-6.399 11.069-6.052z" fill="#ebebeb" data-v-6a768c22=""></path></g><path d="M107 404c-6-1-7-2-7-3v-2l2-1c1 0 3-2 5-6l2-5 2 1s2 0 4-1c5-3 7-14 3-18l-2-2v-1h4c3 0 4 0 6-3 2-2 3-5 3-7 0-9-23-28-39-32-3 0-5 0-9 1l-4 1v-1c-1-1-1-6-2-11-1-13-3-21-4-26l-1-4-2 1c-4 2-14 22-19 36l-1 2h-1c-1 0-3-1-5-3-7-5-13-9-16-9h-3l1 1c0 1 1 2 3 2 8 3 25 20 32 34l2 3-2 1c0 1-2 3-3 3-3 3-9 11-11 17l-2 6h-2c-2 0-18-21-24-33-5-11-6-16-5-22 6-18 25-60 34-73 8-13 10-14 22-14 7 0 8 0 15 5 4 3 10 8 13 11 5 5 5 6 4 10 0 3 0 7 1 11s1 6 0 9c-1 2-1 4 0 6 1 1 3 4 4 7 3 6 9 10 21 14 9 3 12 4 18 2 3-1 4-1 8 1 2 1 7 4 12 6 9 4 8 3 10 18 1 9 4 22 8 38 3 10 3 11-9 18-13 7-19 10-30 11-11 2-28 2-36 1zM204 329c-15-6-19-8-29-13-7-3-12-5-12-6l2-4c3-6 8-18 8-24l1-5h2c3 0 31 15 38 19 10 8 14 18 12 26-3 9-11 11-22 7zM188 273c-5-2-11-4-13-4l-3-1v-2c0-2 4-9 5-9 3 0 22 16 22 19v1h-1l-10-4z" fill="#445467" data-v-6a768c22=""></path><path d="M107 404c-6-1-7-2-7-3v-2l2-1c1 0 3-2 5-6l2-5 2 1s2 0 4-1c5-3 7-14 3-18l-2-2v-1h4c3 0 4 0 6-3 2-2 3-5 3-7 0-9-23-28-39-32-3 0-5 0-9 1l-4 1v-1c-1-1-2-8-3-15-1-15-3-25-5-26l-1-1h1c1-1 1-6 0-9l-1-3h-3l1 6v6h-2v-4l-5 5c-2 4-6 11-9 17l-6 10h-8l1 1 1 2-3-1c-2 0-4 0-5-1s-3-1-4-1h-3l1 1c0 1 1 2 3 2 8 3 25 20 32 34l2 3-2 1c0 1-2 3-3 3-3 3-9 11-11 17l-2 6h-2c-2 0-18-21-24-33-5-11-6-16-5-22 6-18 25-60 34-73 8-13 10-14 22-14 7 0 8 0 15 5 4 3 10 8 13 11 5 5 5 6 4 10 0 3 0 7 1 11s1 6 0 9-1 4 1 8c1 2 3 5 4 6 0 1 1 2 1 2 0 2 11 8 19 11 9 3 13 4 18 2 4-1 7 0 13 4l3 2-2 2c-1 1-1 2-1 8 3 24 3 22-5 31-7 8-13 17-13 18v1h1c1 0 4-1 6-2 5-3 14-6 18-6h4v4c0 4 0 4-5 8-3 2-10 7-15 11l-10 6 1 2 2 1-2 2c-3 1-5 2-15 2-6 0-14-1-17-1zM204 329c-15-6-19-8-29-13-7-3-12-5-12-6l2-5c2-2 4-8 5-12l3-7h3l-1 1v2l7 1c12 2 18 6 30 17 3 3 8 9 9 13l1 2 1-2 2-2v1c2 2 0 7-3 9-4 4-10 4-18 1z" fill="#537291" data-v-6a768c22=""></path><path d="M34 104c-2 0-3-1-7-9-6-11-7-13-8-21-3-14-3-15 4-28 6-13 6-13 18-20 7-4 14-8 16-9 2 0 9-1 17-1 13 0 18-1 22-4s10-3 16 1c5 3 5 3 19 1 4 0 6 0 13 4 6 3 9 5 10 8 2 2 4 5 6 8l4 4-2 2-9-4c-5-3-11-4-16-5-7-1-7-1-16 2-8 3-8 3-22 1-20-3-32-2-45 4-7 4-9 6-14 12-6 7-6 7-6 16 1 5 2 14 2 21 2 12 2 17 1 17z" fill="#4c3521" data-v-6a768c22=""></path></svg>
